<?xml version="1.0" ?>
<svg viewBox="0 0 22.84 22.84" xmlns="http://www.w3.org/2000/svg">
    <g data-name="Layer 2" id="Layer_2">
        <g data-name="Layer 1" id="Layer_1-2">
            <path d="M19.712,15.586l2.537,2.538a.349.349,0,0,0,.591-.244V2.653A2.656,2.656,0,0,0,20.187,0H.346A.349.349,0,0,0,.1.591L4.716,5.205a.347.347,0,0,0,.59-.244V3.231H19.033a.577.577,0,0,1,.577.576V6.229H16.034a4.966,4.966,0,0,0-4.96,4.961v2.1a4.957,4.957,0,0,0-4.268-2.445H3.23V9.6c-.051-1.249.12-2.034-.1-2.343L.591,4.717A.346.346,0,0,0,0,4.961V20.187A2.656,2.656,0,0,0,2.653,22.84H22.494a.345.345,0,0,0,.245-.59l-4.615-4.614a.347.347,0,0,0-.59.244v1.73H11.766V12c1.605-.089,6.693.26,7.844-.318v3.663A.346.346,0,0,0,19.712,15.586Zm2.436,1.458L20.3,15.2V11.361a4.993,4.993,0,0,0,1.846-1.81ZM19.033,2.538H4.96a.346.346,0,0,0-.346.346V4.125L1.182.692H20.187a1.964,1.964,0,0,1,1.961,1.961V6.229H20.3V3.807A1.27,1.27,0,0,0,19.033,2.538ZM.692,5.8,2.538,7.642v3.2H.692Zm0,5.74H6.806A4.274,4.274,0,0,1,10.867,14.5c-1.379-1.245-4.789-1.157-6.83-1.115a.346.346,0,0,0,0,.691H6.805c2.45,0,4.123.934,4.255,1.846H4.96A4.277,4.277,0,0,1,.692,11.536Zm10.382,5.075v3H3.807a.577.577,0,0,1-.577-.577V16.294C4.349,16.87,9.548,16.524,11.074,16.611ZM17.88,20.3a.345.345,0,0,0,.346-.346V18.715l3.433,3.433H2.653A1.964,1.964,0,0,1,.692,20.187V14.166a4.99,4.99,0,0,0,1.846,1.809v3.058A1.27,1.27,0,0,0,3.807,20.3Zm0-9h-6.1c.132-.912,1.8-1.846,4.255-1.846H18.8a.346.346,0,0,0,0-.692c-2.043-.041-5.447-.131-6.829,1.114a4.275,4.275,0,0,1,4.061-2.96h6.114A4.279,4.279,0,0,1,17.88,11.305Z"
                  id="environmental"/>
        </g>
    </g>
</svg>